<svg width="100" height="100" viewBox="0 0 100 100" fill="none" xmlns="http://www.w3.org/2000/svg">
<path d="M90.8018 26.4434V73.5557L50 97.1123L9.19922 73.5566V26.4424L50 2.88672L90.8018 26.4434Z" fill="#2B7FFF" stroke="#155DFC" stroke-width="5"/>
<path d="M27.4618 53.0284V49.8068C28.9618 49.8068 30.0016 49.517 30.5811 48.9375C31.1607 48.3494 31.4505 47.429 31.4505 46.1761V44.1818C31.4505 42.3409 31.736 40.9176 32.307 39.9119C32.8865 38.8977 33.6621 38.1733 34.6337 37.7386C35.6138 37.304 36.7218 37.044 37.9576 36.9588C39.1934 36.8651 40.4675 36.8182 41.78 36.8182V41.9318C40.7573 41.9318 39.9988 42.0469 39.5044 42.277C39.0101 42.5071 38.6863 42.8565 38.5328 43.3253C38.3794 43.794 38.3027 44.3864 38.3027 45.1023V47.9148C38.3027 48.554 38.1578 49.1804 37.8681 49.794C37.5868 50.3991 37.0627 50.9446 36.2956 51.4304C35.5286 51.9162 34.4334 52.304 33.0101 52.5938C31.5868 52.8835 29.7374 53.0284 27.4618 53.0284ZM41.78 68.9318C40.4675 68.9318 39.1934 68.8849 37.9576 68.7912C36.7218 68.706 35.6138 68.446 34.6337 68.0114C33.6621 67.5767 32.8865 66.8523 32.307 65.8381C31.736 64.8324 31.4505 63.4091 31.4505 61.5682V59.5739C31.4505 58.321 31.1607 57.4048 30.5811 56.8253C30.0016 56.2372 28.9618 55.9432 27.4618 55.9432V52.7216C29.7374 52.7216 31.5868 52.8665 33.0101 53.1562C34.4334 53.446 35.5286 53.8338 36.2956 54.3196C37.0627 54.8054 37.5868 55.3551 37.8681 55.9688C38.1578 56.5739 38.3027 57.196 38.3027 57.8352V60.6477C38.3027 61.3551 38.3794 61.9474 38.5328 62.4247C38.6863 62.8935 39.0101 63.2429 39.5044 63.473C39.9988 63.7031 40.7573 63.8182 41.78 63.8182V68.9318ZM27.4618 55.9432V49.8068H33.0868V55.9432H27.4618ZM49.5048 58.1932C48.4735 58.1932 47.5318 57.9418 46.6795 57.4389C45.8272 56.9276 45.1454 56.2457 44.6341 55.3935C44.1312 54.5412 43.8798 53.5994 43.8798 52.5682C43.8798 51.5284 44.1312 50.5866 44.6341 49.7429C45.1454 48.8906 45.8272 48.2131 46.6795 47.7102C47.5318 47.1989 48.4735 46.9432 49.5048 46.9432C50.5446 46.9432 51.4863 47.1989 52.3301 47.7102C53.1824 48.2131 53.8599 48.8906 54.3627 49.7429C54.8741 50.5866 55.1298 51.5284 55.1298 52.5682C55.1298 53.5994 54.8741 54.5412 54.3627 55.3935C53.8599 56.2457 53.1824 56.9276 52.3301 57.4389C51.4863 57.9418 50.5446 58.1932 49.5048 58.1932ZM71.535 52.7216V55.9432C70.0435 55.9432 69.0037 56.2372 68.4157 56.8253C67.8361 57.4048 67.5463 58.321 67.5463 59.5739V61.5682C67.5463 63.4091 67.2566 64.8324 66.677 65.8381C66.106 66.8523 65.3304 67.5767 64.3503 68.0114C63.3787 68.446 62.275 68.706 61.0392 68.7912C59.812 68.8849 58.5378 68.9318 57.2168 68.9318V63.8182C58.2395 63.8182 58.998 63.7031 59.4924 63.473C59.9867 63.2429 60.3105 62.8935 60.464 62.4247C60.6174 61.9474 60.6941 61.3551 60.6941 60.6477V57.8352C60.6941 57.196 60.8347 56.5739 61.1159 55.9688C61.4057 55.3551 61.9341 54.8054 62.7012 54.3196C63.4682 53.8338 64.5634 53.446 65.9867 53.1562C67.41 52.8665 69.2594 52.7216 71.535 52.7216ZM57.2168 36.8182C58.5378 36.8182 59.812 36.8651 61.0392 36.9588C62.275 37.044 63.3787 37.304 64.3503 37.7386C65.3304 38.1733 66.106 38.8977 66.677 39.9119C67.2566 40.9176 67.5463 42.3409 67.5463 44.1818V46.1761C67.5463 47.429 67.8361 48.3494 68.4157 48.9375C69.0037 49.517 70.0435 49.8068 71.535 49.8068V53.0284C69.2594 53.0284 67.41 52.8835 65.9867 52.5938C64.5634 52.304 63.4682 51.9162 62.7012 51.4304C61.9341 50.9446 61.4057 50.3991 61.1159 49.794C60.8347 49.1804 60.6941 48.554 60.6941 47.9148V45.1023C60.6941 44.3864 60.6174 43.794 60.464 43.3253C60.3105 42.8565 59.9867 42.5071 59.4924 42.277C58.998 42.0469 58.2395 41.9318 57.2168 41.9318V36.8182ZM71.535 49.8068V55.9432H65.91V49.8068H71.535Z" fill="white"/>
</svg>
